<?xml version="1.0" encoding="UTF-8"?><svg id="Layer_1" xmlns="http://www.w3.org/2000/svg" viewBox="0 0 1268 384"><defs><style>.cls-1{fill:none;}</style></defs><g id="hod_logo_new_safe"><rect id="safe_space" class="cls-1" width="1268" height="384"/><path id="hod_logo_new" d="M738.63867,215.65995v-50.75977h2.73535v48.24023h27.28809v-48.24023h2.66406v48.24023h27.36035v-48.24023h2.66406v50.75977h-62.71191Zm113.90332,0l-6.26367-14.32812h-28.08008l-6.19238,14.32812h-2.87988l22.10449-50.9043h2.08789l22.10352,50.9043h-2.87988Zm-20.30371-47.16016l-12.81641,30.3125h25.7041l-6.55176-15.48047-6.33594-14.83203Zm68.97461-3.59961l-19.72852,25.34375,19.72852,25.41602h-3.3125l-18.14355-23.40039-18.14355,23.40039h-3.38477l19.65625-25.41602-19.58398-25.34375h3.3125l18.14355,23.39941,18.07227-23.39941h3.38379Zm55.51172-.14453h1.72754v50.9043h-2.80762v-44.42383l-21.0957,34.63184h-1.44043l-21.02344-34.55957v44.35156h-2.87988v-50.9043h1.7998l22.89551,37.2959,22.82422-37.2959Zm52.99121,50.9043l-6.26367-14.32812h-28.08008l-6.19238,14.32812h-2.87988l22.10449-50.9043h2.08789l22.10352,50.9043h-2.87988Zm-20.30371-47.16016l-12.81641,30.3125h25.7041l-6.55176-15.48047-6.33594-14.83203Zm39.0957,47.16016v-48.24023h-18.21582v-2.51953h39.02344v2.51953h-18.14355v48.24023h-2.66406Zm30.3125,0v-50.75977h2.73535v26.49609h32.61621v-26.49609h2.66406v50.75977h-2.66406v-21.74414h-32.61621v21.74414h-2.73535Zm51.04785,0v-50.75977h2.73535v18.21582h16.2002c11.90332,0,17.85645,5.28027,17.85645,15.83984,0,5.52051-1.60938,9.68457-4.82422,12.49219-3.2168,2.80762-7.84863,4.21191-13.89648,4.21191h-18.07129Zm2.73535-2.51953h15.26465c5.18359,0,9.14355-1.2002,11.87988-3.60059,2.73535-2.39941,4.10352-5.92773,4.10352-10.58398,0-8.87988-5.06445-13.32031-15.19141-13.32031h-16.05664v27.50488Zm42.12012,2.51953v-50.75977h2.73633v50.75977h-2.73633Zm54.79102-50.9043h1.94336v50.9043h-2.66309v-45.79199l-36.43262,45.93555h-1.94336v-50.90332h2.73535v45.79199l36.36035-45.93652Zm-18.64844-4.3916c-2.97656,0-5.35254-.79199-7.12793-2.37598-1.77637-1.58398-2.78418-3.86328-3.02344-6.83984h2.30371c.19141,2.25684,.97168,3.97168,2.33984,5.14746,1.36816,1.17676,3.2041,1.76465,5.50781,1.76465,2.20703,0,4.00781-.58789,5.40039-1.76465,1.3916-1.17578,2.18359-2.89062,2.37598-5.14746h2.37598c-.28809,2.97656-1.32129,5.25586-3.0957,6.83984-1.77637,1.58398-4.12891,2.37598-7.05664,2.37598Zm-414.35645,141.69629h-4.31934l-30.81641-24.55176v24.55176h-2.73535v-50.75977h2.73535v25.27148l28.44043-25.27148h3.95996l-28.94434,25.63184,31.67969,25.12793Zm4.68066,.07227c-.67285,0-1.15234-.02539-1.44043-.07227v-2.51953h1.36816c4.41602,0,7.46289-1.65625,9.14453-4.96875,1.67969-3.31152,2.51953-8.5918,2.51953-15.83984v-27.43164h34.34375v50.75977h-2.73535v-48.24023h-28.94434v25.27246c0,8.54395-1.11621,14.52051-3.34766,17.92773-2.23242,3.40918-5.86816,5.1123-10.9082,5.1123Zm94.1748-50.83203h3.02441l-19.08008,38.08789c-1.24902,2.49609-2.28027,4.4043-3.0957,5.72363-.81738,1.32129-1.8252,2.64062-3.02441,3.95996-1.2002,1.32129-2.50879,2.23242-3.92383,2.73633-1.41699,.50391-3.08496,.75586-5.00391,.75586-1.05664,0-2.5918-.19238-4.6084-.57617v-2.66406c1.63184,.43262,3.14355,.64844,4.53613,.64844,2.6875,0,4.82422-.68457,6.4082-2.05176,1.58398-1.36816,3.33496-3.89941,5.25586-7.59668l-20.73633-39.02344h3.02441l19.15234,36.07129,3.45508-6.76758,14.61621-29.30371Zm32.61621,20.80762c5.85547,0,10.19922,1.2002,13.03223,3.60059,2.83105,2.40039,4.24805,6.07227,4.24805,11.01562,0,10.22363-6.04785,15.33594-18.14453,15.33594h-19.65527v-50.75977h33.40723v2.51953h-30.67188v18.28809h17.78418Zm-.93555,27.43262c10.27051,0,15.40723-4.27246,15.40723-12.81641,0-4.22363-1.23633-7.2959-3.70801-9.21582-2.47266-1.91992-6.1084-2.87988-10.90723-2.87988h-17.64062v24.91211h16.84863Zm-208.22559-172.54081h-2v200h2V127Zm-41.8183,189.73862h-199.94665v9.98693h199.94665v-9.98693ZM356.97534,136.97386c49.61292,0,89.97599,40.32108,89.97599,89.88238s-40.36307,89.88238-89.97599,89.88238-89.97599-40.32108-89.97599-89.88238,40.36307-89.88238,89.97599-89.88238m0-9.98693c-55.21372,0-99.97332,44.713-99.97332,99.86931s44.7596,99.86931,99.97332,99.86931,99.97332-44.71303,99.97332-99.86931-44.7596-99.86931-99.97332-99.86931h0Zm199.94665-59.92159c11.02513,0,19.99466,8.96023,19.99466,19.97386s-8.96953,19.97386-19.99466,19.97386-19.99466-8.96023-19.99466-19.97386,8.96953-19.97386,19.99466-19.97386m0-9.98693c-16.56418,0-29.992,13.4139-29.992,29.96079s13.42781,29.96079,29.992,29.96079,29.992-13.4139,29.992-29.96079-13.42781-29.96079-29.992-29.96079h0ZM219.1326,306.75169l-56.00166-79.89545,56.00166-79.89545h-12.20451l-49.8994,71.18962-49.8994-71.18962h-12.20451l56.00166,79.89545-56.00166,79.89545h12.20451l49.8994-71.18962,49.8994,71.18962h12.20451Zm37.86941-179.76476H57.05537v9.98693h199.94665v-9.98693Zm0,189.75169H57.05537v9.98693h199.94665v-9.98693ZM606.90865,126.98693h-99.97332v9.98693h99.97332v-9.98693Zm-31.2092,29.96079c-2.57573,27.79389-3.17567,90.11145,33.99935,139.62228-29.95807-.27436-48.603-.49551-52.65514-.54476l-.12167-.00146-.12167,.00146c-4.05214,.04925-22.69707,.2704-52.65514,.54476,37.17502-49.51083,36.57508-111.82839,33.99935-139.62228h37.55492m11.27495-9.98693h-60.10481c6.25761,40.43912,3.03544,112.97691-44.92759,159.7909,42.08508-.35202,68.63073-.66307,74.97999-.74024,6.34926,.07717,32.89491,.38822,74.97999,.74024-47.96303-46.81398-51.18519-119.35178-44.92759-159.7909h0Z"/></g></svg>